<?xml version="1.0" standalone="no"?>
<!DOCTYPE svg PUBLIC "-//W3C//DTD SVG 20010904//EN"
 "http://www.w3.org/TR/2001/REC-SVG-20010904/DTD/svg10.dtd">
<svg version="1.0" xmlns="http://www.w3.org/2000/svg"
 width="838.000000pt" height="250.000000pt" viewBox="0 0 838.000000 250.000000"
 preserveAspectRatio="xMidYMid meet">

<g transform="translate(0.000000,250.000000) scale(0.100000,-0.100000)"
fill="#2b1b63" stroke="none">
<path d="M0 1250 l0 -1250 1250 0 1250 0 0 1250 0 1250 -1250 0 -1250 0 0
-1250z m1595 941 c66 -12 167 -34 225 -49 l105 -27 3 -202 2 -203 -79 0 -79 0
-11 46 c-53 210 -203 307 -476 308 -177 0 -285 -39 -336 -121 -30 -49 -38
-158 -15 -218 37 -97 117 -136 441 -216 248 -62 311 -82 400 -127 188 -97 287
-290 271 -533 -19 -299 -203 -472 -553 -519 -118 -16 -414 -8 -543 15 -99 18
-295 66 -342 84 l-28 11 0 220 0 220 80 0 79 0 11 -42 c64 -250 221 -360 515
-362 162 -1 246 24 314 92 57 57 75 111 69 211 -8 146 -74 190 -416 277 -259
66 -327 87 -407 127 -193 96 -268 222 -269 452 -1 159 26 253 102 353 78 104
205 179 359 213 120 26 402 21 578 -10z"/>
<path d="M7020 2223 c-131 -68 -88 -257 59 -257 78 0 134 55 134 134 0 101
-105 168 -193 123z"/>
<path d="M2941 2200 c-140 -22 -228 -82 -280 -190 -22 -47 -26 -69 -26 -145 0
-76 4 -99 26 -146 45 -95 121 -137 348 -194 239 -59 281 -87 281 -193 0 -104
-70 -155 -217 -160 -113 -5 -184 15 -244 66 -40 35 -89 119 -89 155 0 14 -9
17 -45 17 l-45 0 0 -129 0 -130 53 -14 c170 -48 337 -65 467 -48 169 22 263
74 315 176 27 53 30 67 30 154 -1 78 -5 106 -24 147 -46 104 -119 147 -347
204 -252 63 -299 94 -299 196 0 60 22 97 76 129 29 17 52 20 149 20 109 0 118
-2 169 -30 59 -33 106 -94 117 -152 6 -31 8 -33 50 -33 l44 0 0 124 0 124 -67
16 c-156 36 -343 52 -442 36z"/>
<path d="M3760 2000 l0 -120 -55 0 -55 0 0 -45 0 -45 54 0 55 0 3 -287 c3
-274 4 -290 25 -329 28 -52 71 -73 175 -87 94 -12 204 3 254 34 36 22 64 73
71 130 l6 39 -51 0 -50 0 -7 -42 c-10 -57 -43 -88 -94 -88 -72 0 -74 8 -79
341 l-5 289 112 0 111 0 0 45 0 45 -110 0 -110 0 0 120 0 120 -125 0 -125 0 0
-120z"/>
<path d="M6260 2000 l0 -120 -55 0 -55 0 0 -45 0 -45 54 0 55 0 3 -287 c3
-274 4 -290 25 -329 28 -52 71 -73 175 -87 94 -12 204 3 254 34 36 22 64 73
71 130 l6 39 -51 0 -50 0 -7 -42 c-10 -57 -43 -88 -94 -88 -72 0 -74 8 -79
341 l-5 289 112 0 111 0 0 45 0 45 -110 0 -110 0 0 120 0 120 -125 0 -125 0 0
-120z"/>
<path d="M4603 1890 c-34 -5 -89 -16 -122 -26 l-61 -17 0 -83 0 -84 39 0 c36
0 40 3 62 47 34 67 66 87 149 91 126 7 188 -43 197 -163 l5 -62 -133 -6 c-272
-12 -371 -81 -371 -260 0 -159 83 -242 242 -242 85 1 158 27 214 76 l46 41 0
-51 0 -51 180 0 180 0 0 45 0 45 -54 0 -55 0 -3 253 c-3 278 -5 284 -72 355
-37 40 -74 61 -141 78 -66 18 -225 25 -302 14z m267 -485 c0 -61 -5 -108 -14
-130 -32 -75 -138 -100 -198 -46 -29 26 -33 35 -36 98 -7 126 39 173 171 173
l77 0 0 -95z"/>
<path d="M5577 1889 c-158 -23 -236 -101 -237 -237 0 -79 17 -119 69 -164 41
-35 64 -44 263 -103 102 -30 128 -54 128 -120 0 -70 -55 -106 -163 -104 -110
1 -173 41 -204 130 -17 47 -19 49 -55 49 l-38 0 0 -109 0 -108 58 -12 c216
-42 425 -34 533 20 97 48 141 164 108 282 -23 85 -98 135 -274 181 -172 46
-195 61 -195 130 0 39 24 70 66 86 35 14 139 12 186 -2 48 -14 95 -65 104
-113 6 -33 9 -35 45 -35 l39 0 0 94 0 94 -72 17 c-147 33 -250 40 -361 24z"/>
<path d="M7768 1890 c-167 -30 -273 -117 -314 -257 -20 -69 -20 -217 0 -287
34 -115 129 -207 251 -242 80 -23 231 -24 306 -1 93 28 171 112 195 210 l6 28
-58 -3 c-56 -3 -59 -4 -64 -33 -19 -92 -74 -138 -170 -143 -55 -3 -70 0 -99
20 -75 51 -101 130 -101 308 0 230 48 319 179 328 32 2 75 -1 94 -7 49 -16 92
-69 108 -130 13 -50 13 -51 51 -51 l38 0 0 104 0 105 -55 16 c-120 35 -284 50
-367 35z"/>
<path d="M6850 1835 l0 -45 55 0 55 0 0 -300 0 -300 -55 0 -55 0 0 -45 0 -45
240 0 240 0 0 45 0 45 -55 0 -55 0 0 345 0 345 -185 0 -185 0 0 -45z"/>
<path d="M2620 830 c0 -14 7 -20 23 -20 20 0 28 -19 91 -225 l70 -226 40 3
c36 3 40 6 52 43 7 22 32 100 54 173 23 74 45 131 48 127 3 -3 30 -81 58 -173
l52 -167 40 -3 40 -3 16 53 c9 29 40 130 69 223 50 162 54 170 80 173 19 2 27
9 27 23 0 17 -8 19 -75 19 -68 0 -75 -2 -75 -20 0 -16 7 -20 31 -20 21 0 30
-4 26 -12 -2 -7 -24 -75 -47 -151 -24 -76 -47 -134 -51 -130 -4 5 -29 80 -56
168 l-49 160 -45 3 -45 3 -48 -160 c-27 -87 -52 -164 -56 -170 -3 -7 -27 55
-52 136 l-46 148 24 3 c16 2 24 10 24 23 0 18 -8 19 -110 19 -103 0 -110 -1
-110 -20z"/>
<path d="M3400 830 c0 -16 7 -20 35 -20 l35 0 0 -205 0 -205 -35 0 c-28 0 -35
-4 -35 -20 0 -19 7 -20 220 -20 l220 0 0 55 c0 48 -2 55 -20 55 -16 0 -20 -7
-20 -35 l0 -35 -105 0 -105 0 0 100 0 100 65 0 65 0 0 -30 c0 -23 4 -30 20
-30 18 0 20 7 20 80 0 73 -2 80 -20 80 -16 0 -20 -7 -20 -30 l0 -30 -65 0 -65
0 0 85 0 85 105 0 105 0 0 -35 c0 -28 4 -35 20 -35 18 0 20 7 20 55 l0 55
-220 0 c-213 0 -220 -1 -220 -20z"/>
<path d="M3910 831 c0 -17 6 -21 35 -21 l35 0 0 -205 0 -205 -35 0 c-29 0 -35
-4 -35 -21 0 -21 2 -21 188 -17 160 3 193 7 226 23 56 28 81 66 80 122 -1 39
-6 51 -32 74 -17 16 -51 33 -74 40 l-43 12 30 7 c77 17 108 64 84 127 -26 68
-57 77 -271 82 -186 3 -188 3 -188 -18z m298 -27 c35 -10 56 -58 42 -98 -13
-39 -44 -56 -105 -56 l-45 0 0 80 0 80 43 0 c23 0 52 -3 65 -6z m39 -228 c35
-41 32 -108 -6 -147 -26 -25 -37 -29 -85 -29 l-56 0 0 106 0 106 62 -4 c51 -4
65 -9 85 -32z"/>
<path d="M4710 831 c0 -17 6 -21 35 -21 l35 0 0 -205 0 -205 -35 0 c-29 0 -35
-4 -35 -21 0 -21 2 -21 188 -17 160 3 193 7 226 23 56 28 81 66 80 122 -1 39
-6 51 -32 74 -17 16 -51 33 -74 40 l-43 12 30 7 c77 17 108 64 84 127 -26 68
-57 77 -271 82 -186 3 -188 3 -188 -18z m298 -27 c35 -10 56 -58 42 -98 -13
-39 -44 -56 -105 -56 l-45 0 0 80 0 80 43 0 c23 0 52 -3 65 -6z m39 -228 c35
-41 32 -108 -6 -147 -26 -25 -37 -29 -85 -29 l-56 0 0 106 0 106 62 -4 c51 -4
65 -9 85 -32z"/>
<path d="M5280 830 c0 -16 7 -20 30 -20 l30 0 0 -163 c0 -149 2 -167 23 -207
31 -63 78 -85 182 -85 91 0 145 21 179 68 19 26 21 45 24 208 l3 179 35 0 c27
0 34 4 34 20 0 18 -7 20 -85 20 -78 0 -85 -2 -85 -20 0 -16 7 -20 31 -20 l30
0 -3 -176 -3 -176 -33 -29 c-27 -24 -41 -29 -85 -29 -108 0 -127 39 -127 255
l0 155 30 0 c23 0 30 4 30 20 0 19 -7 20 -120 20 -113 0 -120 -1 -120 -20z"/>
<path d="M5860 830 c0 -16 7 -20 35 -20 l35 0 0 -205 0 -205 -35 0 c-28 0 -35
-4 -35 -20 0 -19 7 -20 125 -20 118 0 125 1 125 20 0 16 -7 20 -30 20 l-30 0
0 205 0 205 30 0 c23 0 30 4 30 20 0 19 -7 20 -125 20 -118 0 -125 -1 -125
-20z"/>
<path d="M6170 830 c0 -16 7 -20 35 -20 l35 0 0 -205 0 -205 -35 0 c-28 0 -35
-4 -35 -20 0 -19 7 -20 210 -20 l210 0 0 60 c0 47 -3 60 -15 60 -11 0 -15 -11
-15 -40 l0 -40 -100 0 -100 0 0 205 0 205 30 0 c23 0 30 4 30 20 0 19 -7 20
-125 20 -118 0 -125 -1 -125 -20z"/>
<path d="M6640 831 c0 -17 6 -21 35 -21 l35 0 0 -205 0 -205 -35 0 c-29 0 -35
-4 -35 -21 0 -21 2 -21 168 -16 100 3 183 10 207 18 58 20 119 85 133 141 26
104 8 193 -52 253 -58 57 -95 66 -288 72 -166 5 -168 5 -168 -16z m311 -37
c47 -24 72 -91 72 -189 0 -142 -46 -205 -148 -205 l-45 0 0 205 0 205 45 0
c26 0 60 -7 76 -16z"/>
<path d="M7220 830 c0 -16 7 -20 35 -20 l35 0 0 -205 0 -205 -35 0 c-28 0 -35
-4 -35 -20 0 -19 7 -20 220 -20 l220 0 0 55 c0 48 -2 55 -20 55 -16 0 -20 -7
-20 -35 l0 -35 -105 0 -105 0 0 100 0 100 65 0 65 0 0 -30 c0 -23 4 -30 20
-30 18 0 20 7 20 80 0 73 -2 80 -20 80 -16 0 -20 -7 -20 -30 l0 -30 -65 0 -65
0 0 85 0 85 105 0 105 0 0 -35 c0 -28 4 -35 20 -35 18 0 20 7 20 55 l0 55
-220 0 c-213 0 -220 -1 -220 -20z"/>
<path d="M7730 831 c0 -17 6 -21 35 -21 l35 0 0 -205 0 -205 -35 0 c-28 0 -35
-4 -35 -20 0 -19 7 -20 125 -20 118 0 125 1 125 20 0 16 -7 20 -30 20 l-30 0
0 90 0 90 28 0 c37 0 49 -15 107 -127 l47 -93 79 0 c72 0 79 2 79 20 0 15 -7
20 -28 20 -25 0 -32 9 -70 85 -28 57 -50 89 -67 97 -33 15 -32 24 5 32 51 10
80 47 80 103 0 56 -17 86 -63 110 -26 14 -66 18 -209 21 -175 4 -178 4 -178
-17z m285 -27 c21 -8 45 -56 45 -89 0 -33 -24 -81 -45 -89 -9 -3 -34 -6 -56
-6 l-39 0 0 95 0 95 39 0 c22 0 47 -3 56 -6z"/>
</g>
</svg>
