<?xml version="1.0" standalone="no"?>
<!DOCTYPE svg PUBLIC "-//W3C//DTD SVG 20010904//EN"
 "http://www.w3.org/TR/2001/REC-SVG-20010904/DTD/svg10.dtd">
<svg version="1.0" xmlns="http://www.w3.org/2000/svg"
 width="900.000000pt" height="300.000000pt" viewBox="0 0 900.000000 300.000000"
 preserveAspectRatio="xMidYMid meet">

<g transform="translate(0.000000,300.000000) scale(0.100000,-0.100000)"
fill="#2b1b63" stroke="none">
<path d="M0 1500 l0 -1500 1500 0 1500 0 0 1500 0 1500 -1500 0 -1500 0 0
-1500z m1815 951 c66 -12 167 -34 225 -49 l105 -27 3 -202 2 -203 -79 0 -79 0
-11 46 c-53 210 -203 307 -476 308 -177 0 -285 -39 -336 -121 -30 -49 -38
-158 -15 -218 37 -97 117 -136 441 -216 248 -62 311 -82 400 -127 188 -97 287
-290 271 -533 -19 -299 -203 -472 -553 -519 -118 -16 -414 -8 -543 15 -99 18
-295 66 -342 84 l-28 11 0 220 0 220 80 0 79 0 11 -42 c64 -250 221 -360 515
-362 162 -1 246 24 314 92 57 57 75 111 69 211 -8 146 -74 190 -416 277 -259
66 -327 87 -407 127 -193 96 -268 222 -269 452 -1 159 26 253 102 353 78 104
205 179 359 213 120 26 402 21 578 -10z"/>
<path d="M7580 2483 c-131 -68 -88 -257 59 -257 78 0 134 55 134 134 0 101
-105 168 -193 123z"/>
<path d="M3501 2460 c-140 -22 -228 -82 -280 -190 -22 -47 -26 -69 -26 -145 0
-76 4 -99 26 -146 45 -95 121 -137 348 -194 239 -59 281 -87 281 -193 0 -104
-70 -155 -217 -160 -113 -5 -184 15 -244 66 -40 35 -89 119 -89 155 0 14 -9
17 -45 17 l-45 0 0 -129 0 -130 53 -14 c170 -48 337 -65 467 -48 169 22 263
74 315 176 27 53 30 67 30 154 -1 78 -5 106 -24 147 -46 104 -119 147 -347
204 -252 63 -299 94 -299 196 0 60 22 97 76 129 29 17 52 20 149 20 109 0 118
-2 169 -30 59 -33 106 -94 117 -152 6 -31 8 -33 50 -33 l44 0 0 124 0 124 -67
16 c-156 36 -343 52 -442 36z"/>
<path d="M4320 2260 l0 -120 -55 0 -55 0 0 -45 0 -45 54 0 55 0 3 -287 c3
-274 4 -290 25 -329 28 -52 71 -73 175 -87 94 -12 204 3 254 34 36 22 64 73
71 130 l6 39 -51 0 -50 0 -7 -42 c-10 -57 -43 -88 -94 -88 -72 0 -74 8 -79
341 l-5 289 112 0 111 0 0 45 0 45 -110 0 -110 0 0 120 0 120 -125 0 -125 0 0
-120z"/>
<path d="M6820 2260 l0 -120 -55 0 -55 0 0 -45 0 -45 54 0 55 0 3 -287 c3
-274 4 -290 25 -329 28 -52 71 -73 175 -87 94 -12 204 3 254 34 36 22 64 73
71 130 l6 39 -51 0 -50 0 -7 -42 c-10 -57 -43 -88 -94 -88 -72 0 -74 8 -79
341 l-5 289 112 0 111 0 0 45 0 45 -110 0 -110 0 0 120 0 120 -125 0 -125 0 0
-120z"/>
<path d="M5163 2150 c-34 -5 -89 -16 -122 -26 l-61 -17 0 -83 0 -84 39 0 c36
0 40 3 62 47 34 67 66 87 149 91 126 7 188 -43 197 -163 l5 -62 -133 -6 c-272
-12 -371 -81 -371 -260 0 -159 83 -242 242 -242 85 1 158 27 214 76 l46 41 0
-51 0 -51 180 0 180 0 0 45 0 45 -54 0 -55 0 -3 253 c-3 278 -5 284 -72 355
-37 40 -74 61 -141 78 -66 18 -225 25 -302 14z m267 -485 c0 -61 -5 -108 -14
-130 -32 -75 -138 -100 -198 -46 -29 26 -33 35 -36 98 -7 126 39 173 171 173
l77 0 0 -95z"/>
<path d="M6137 2149 c-158 -23 -236 -101 -237 -237 0 -79 17 -119 69 -164 41
-35 64 -44 263 -103 102 -30 128 -54 128 -120 0 -70 -55 -106 -163 -104 -110
1 -173 41 -204 130 -17 47 -19 49 -55 49 l-38 0 0 -109 0 -108 58 -12 c216
-42 425 -34 533 20 97 48 141 164 108 282 -23 85 -98 135 -274 181 -172 46
-195 61 -195 130 0 39 24 70 66 86 35 14 139 12 186 -2 48 -14 95 -65 104
-113 6 -33 9 -35 45 -35 l39 0 0 94 0 94 -72 17 c-147 33 -250 40 -361 24z"/>
<path d="M8328 2150 c-167 -30 -273 -117 -314 -257 -20 -69 -20 -217 0 -287
34 -115 129 -207 251 -242 80 -23 231 -24 306 -1 93 28 171 112 195 210 l6 28
-58 -3 c-56 -3 -59 -4 -64 -33 -19 -92 -74 -138 -170 -143 -55 -3 -70 0 -99
20 -75 51 -101 130 -101 308 0 230 48 319 179 328 32 2 75 -1 94 -7 49 -16 92
-69 108 -130 13 -50 13 -51 51 -51 l38 0 0 104 0 105 -55 16 c-120 35 -284 50
-367 35z"/>
<path d="M7410 2095 l0 -45 55 0 55 0 0 -300 0 -300 -55 0 -55 0 0 -45 0 -45
240 0 240 0 0 45 0 45 -55 0 -55 0 0 345 0 345 -185 0 -185 0 0 -45z"/>
<path d="M3160 1050 c0 -15 7 -20 25 -20 20 0 26 -7 34 -37 6 -21 37 -130 69
-243 59 -204 59 -205 87 -205 28 0 28 0 88 213 33 117 62 211 64 209 3 -4 123
-417 123 -425 0 -2 12 -2 27 0 27 3 29 9 97 246 l69 242 28 0 c22 0 29 5 29
20 0 18 -7 20 -75 20 -68 0 -75 -2 -75 -19 0 -14 8 -21 29 -23 l29 -3 -53
-189 c-30 -103 -56 -190 -59 -193 -5 -5 -23 52 -81 262 -20 72 -38 138 -41
148 -4 13 -14 17 -32 15 -26 -3 -29 -10 -87 -215 -33 -117 -62 -207 -66 -200
-4 6 -28 86 -53 177 -26 91 -49 173 -52 183 -4 13 1 17 25 17 24 0 31 4 31 20
0 19 -7 20 -90 20 -83 0 -90 -1 -90 -20z"/>
<path d="M3940 1050 c0 -16 7 -20 35 -20 l35 0 0 -225 0 -225 -35 0 c-28 0
-35 -4 -35 -20 0 -19 7 -20 215 -20 l215 0 0 55 c0 48 -2 55 -20 55 -16 0 -20
-7 -20 -35 l0 -35 -125 0 -125 0 0 115 0 115 90 0 90 0 0 -35 c0 -28 4 -35 20
-35 19 0 20 7 20 90 0 83 -1 90 -20 90 -16 0 -20 -7 -20 -35 l0 -35 -90 0 -90
0 0 90 0 90 125 0 125 0 0 -35 c0 -28 4 -35 20 -35 18 0 20 7 20 55 l0 55
-215 0 c-208 0 -215 -1 -215 -20z"/>
<path d="M4470 1050 c0 -16 7 -20 35 -20 l35 0 0 -225 0 -225 -35 0 c-29 0
-35 -4 -35 -21 0 -21 2 -21 168 -17 192 5 236 18 266 82 37 78 11 152 -68 190
-37 19 -45 25 -28 26 13 0 37 13 53 29 39 39 41 105 4 149 -34 41 -88 52 -254
52 -134 0 -141 -1 -141 -20z m316 -43 c21 -19 27 -32 27 -67 0 -35 -6 -48 -27
-67 -23 -20 -38 -23 -102 -23 l-74 0 0 90 0 90 74 0 c64 0 79 -3 102 -23z m25
-226 c25 -26 29 -37 29 -86 0 -49 -4 -60 -29 -86 -28 -28 -34 -29 -115 -29
l-86 0 0 115 0 115 86 0 c81 0 87 -1 115 -29z"/>
<path d="M5240 1050 c0 -16 7 -20 35 -20 l35 0 0 -225 0 -225 -35 0 c-29 0
-35 -4 -35 -21 0 -21 2 -21 168 -17 192 5 236 18 266 82 37 78 11 152 -68 190
-37 19 -45 25 -28 26 13 0 37 13 53 29 39 39 41 105 4 149 -34 41 -88 52 -254
52 -134 0 -141 -1 -141 -20z m316 -43 c21 -19 27 -32 27 -67 0 -35 -6 -48 -27
-67 -23 -20 -38 -23 -102 -23 l-74 0 0 90 0 90 74 0 c64 0 79 -3 102 -23z m25
-226 c25 -26 29 -37 29 -86 0 -49 -4 -60 -29 -86 -28 -28 -34 -29 -115 -29
l-86 0 0 115 0 115 86 0 c81 0 87 -1 115 -29z"/>
<path d="M5780 1050 c0 -16 7 -20 35 -20 l35 0 0 -183 c0 -170 2 -186 23 -227
31 -62 78 -84 177 -84 91 0 145 23 175 74 18 31 20 56 23 228 l4 192 34 0 c27
0 34 4 34 20 0 18 -7 20 -85 20 -78 0 -85 -2 -85 -20 0 -16 7 -20 30 -20 l30
0 0 -176 c0 -142 -3 -183 -16 -210 -24 -50 -63 -67 -145 -62 -120 7 -139 46
-139 292 l0 156 35 0 c28 0 35 4 35 20 0 19 -7 20 -100 20 -93 0 -100 -1 -100
-20z"/>
<path d="M6400 1050 c0 -16 7 -20 35 -20 l35 0 0 -225 0 -225 -35 0 c-28 0
-35 -4 -35 -20 0 -19 7 -20 105 -20 98 0 105 1 105 20 0 16 -7 20 -35 20 l-35
0 0 225 0 225 35 0 c28 0 35 4 35 20 0 19 -7 20 -105 20 -98 0 -105 -1 -105
-20z"/>
<path d="M6690 1050 c0 -16 7 -20 35 -20 l35 0 0 -225 0 -225 -35 0 c-28 0
-35 -4 -35 -20 0 -19 7 -20 210 -20 l210 0 0 65 c0 51 -3 65 -15 65 -11 0 -15
-12 -15 -45 l0 -45 -125 0 -125 0 0 225 0 225 35 0 c28 0 35 4 35 20 0 19 -7
20 -105 20 -98 0 -105 -1 -105 -20z"/>
<path d="M7170 1050 c0 -16 7 -20 35 -20 l35 0 0 -225 0 -225 -35 0 c-28 0
-35 -4 -35 -20 0 -19 7 -20 112 -20 214 0 306 35 358 135 21 41 25 63 25 130
0 67 -4 89 -25 130 -52 100 -144 135 -358 135 -105 0 -112 -1 -112 -20z m337
-52 c57 -38 83 -95 83 -185 0 -158 -68 -233 -213 -233 l-67 0 0 226 0 226 78
-3 c65 -3 86 -9 119 -31z"/>
<path d="M7760 1050 c0 -16 7 -20 35 -20 l35 0 0 -225 0 -225 -35 0 c-28 0
-35 -4 -35 -20 0 -19 7 -20 215 -20 l215 0 0 55 c0 48 -2 55 -20 55 -16 0 -20
-7 -20 -35 l0 -35 -125 0 -125 0 0 115 0 115 90 0 90 0 0 -35 c0 -28 4 -35 20
-35 19 0 20 7 20 90 0 83 -1 90 -20 90 -16 0 -20 -7 -20 -35 l0 -35 -90 0 -90
0 0 90 0 90 125 0 125 0 0 -35 c0 -28 4 -35 20 -35 18 0 20 7 20 55 l0 55
-215 0 c-208 0 -215 -1 -215 -20z"/>
<path d="M8290 1051 c0 -17 6 -21 35 -21 l35 0 0 -225 0 -225 -35 0 c-28 0
-35 -4 -35 -20 0 -19 7 -20 105 -20 98 0 105 1 105 20 0 16 -7 20 -35 20 l-35
0 0 105 0 105 58 0 c33 0 66 -6 77 -14 11 -8 45 -64 75 -125 l54 -111 58 0
c51 0 58 2 58 20 0 16 -7 20 -30 20 -28 0 -33 7 -80 100 -33 67 -58 104 -76
113 l-26 14 47 17 c36 14 50 26 61 52 28 66 8 135 -49 169 -28 17 -55 20 -199
23 -165 4 -168 4 -168 -17z m325 -46 c20 -19 25 -34 25 -75 0 -41 -5 -56 -25
-75 -22 -22 -32 -25 -105 -25 l-80 0 0 100 0 100 80 0 c73 0 83 -3 105 -25z"/>
</g>
</svg>
